<?xml version="1.0" standalone="no"?>
<!DOCTYPE svg PUBLIC "-//W3C//DTD SVG 20010904//EN"
 "http://www.w3.org/TR/2001/REC-SVG-20010904/DTD/svg10.dtd">
<svg version="1.0" xmlns="http://www.w3.org/2000/svg"
 width="320.000000pt" height="320.000000pt" viewBox="0 0 320.000000 320.000000"
 preserveAspectRatio="xMidYMid meet">
<metadata>
Created by potrace 1.14, written by Peter Selinger 2001-2017
</metadata>
<g transform="translate(0.000000,320.000000) scale(0.100000,-0.100000)"
fill="#000000" stroke="none">
<path d="M709 3005 c-2 -2 -20 -6 -39 -9 -165 -26 -394 -183 -508 -348 -122
-177 -153 -292 -147 -548 5 -218 36 -354 122 -528 79 -161 199 -305 408 -488
108 -95 195 -164 420 -334 339 -256 504 -406 583 -529 l40 -61 20 27 c24 33
221 228 307 303 33 29 76 67 95 84 74 66 200 166 315 251 244 180 342 262 475
395 206 206 313 387 361 612 24 111 31 326 16 460 -41 345 -274 603 -632 700
-66 17 -324 17 -385 -1 -250 -72 -414 -209 -523 -438 l-43 -92 -22 69 c-49
158 -185 307 -372 408 -109 59 -167 71 -340 71 -81 0 -149 -2 -151 -4z"/>
</g>
</svg>
